# MagicaVoxel @ Ephtracy

# group
g chr_sergei

# material
mtllib chr_sergei.mtl
usemtl palette

# normals
vn -1 0 0
vn 1 0 0
vn 0 0 1
vn 0 0 -1
vn 0 -1 0
vn 0 1 0

# texcoords
vt 0.00195313 0.5
vt 0.0332031 0.5
vt 0.0605469 0.5
vt 0.142578 0.5
vt 0.373047 0.5
vt 0.396484 0.5
vt 0.521484 0.5
vt 0.611328 0.5
vt 0.634766 0.5
vt 0.646484 0.5
vt 0.810547 0.5
vt 0.853516 0.5
vt 0.958984 0.5
vt 0.978516 0.5
vt 0.986328 0.5
vt 0.994141 0.5

# verts
v -4 3 0.5
v -4 3 -0.5
v -4 4 0.5
v -4 4 -0.5
v -4 7 0.5
v -4 7 -0.5
v -4 9 1.5
v -4 9 -1.5
v -4 10 -1.5
v -4 10 -2.5
v -4 13 1.5
v -4 13 -2.5
v -3 7 2.5
v -3 7 0.5
v -3 7 -0.5
v -3 7 -2.5
v -3 9 1.5
v -3 9 -1.5
v -3 9 -2.5
v -3 10 3.5
v -3 10 2.5
v -3 10 -1.5
v -3 10 -2.5
v -3 10 -3.5
v -3 11 3.5
v -3 11 2.5
v -3 11 1.5
v -3 12 2.5
v -3 12 1.5
v -3 13 1.5
v -3 13 -2.5
v -3 13 -3.5
v -3 14 2.5
v -3 14 -2.5
v -2 0 0.5
v -2 0 -0.5
v -2 1 0.5
v -2 1 -0.5
v -2 2 2.5
v -2 2 0.5
v -2 3 2.5
v -2 3 0.5
v -2 3 -0.5
v -2 3 -1.5
v -2 4 0.5
v -2 4 -0.5
v -2 6 2.5
v -2 6 1.5
v -2 7 3.5
v -2 7 2.5
v -2 7 1.5
v -2 7 0.5
v -2 7 -0.5
v -2 7 -1.5
v -2 8 3.5
v -2 8 2.5
v -1 6 3.5
v -1 6 2.5
v -1 7 3.5
v -1 7 2.5
v -1 8 3.5
v -1 8 2.5
v -1 9 3.5
v -1 9 2.5
v -1 14 2.5
v -1 14 -2.5
v -1 15 2.5
v -1 15 -2.5
v 1 0 0.5
v 1 0 -0.5
v 1 1 0.5
v 1 1 -0.5
v 1 2 0.5
v 1 2 -0.5
v 1 7 3.5
v 1 7 2.5
v 1 8 3.5
v 1 8 2.5
v 1 10 3.5
v 1 10 2.5
v 1 11 3.5
v 1 11 2.5
v -1 0 0.5
v -1 0 -0.5
v -1 1 0.5
v -1 1 -0.5
v -1 2 0.5
v -1 2 -0.5
v -1 7 3.5
v -1 7 2.5
v -1 8 3.5
v -1 8 2.5
v -1 10 3.5
v -1 10 2.5
v -1 11 3.5
v -1 11 2.5
v 1 6 3.5
v 1 6 2.5
v 1 7 3.5
v 1 7 2.5
v 1 8 3.5
v 1 8 2.5
v 1 9 3.5
v 1 9 2.5
v 1 14 2.5
v 1 14 -2.5
v 1 15 2.5
v 1 15 -2.5
v 2 0 0.5
v 2 0 -0.5
v 2 1 0.5
v 2 1 -0.5
v 2 2 2.5
v 2 2 0.5
v 2 3 2.5
v 2 3 0.5
v 2 3 -0.5
v 2 3 -1.5
v 2 4 0.5
v 2 4 -0.5
v 2 6 2.5
v 2 6 1.5
v 2 7 3.5
v 2 7 2.5
v 2 7 1.5
v 2 7 0.5
v 2 7 -0.5
v 2 7 -1.5
v 2 8 3.5
v 2 8 2.5
v 3 7 2.5
v 3 7 0.5
v 3 7 -0.5
v 3 7 -2.5
v 3 9 1.5
v 3 9 -1.5
v 3 9 -2.5
v 3 10 3.5
v 3 10 2.5
v 3 10 -1.5
v 3 10 -2.5
v 3 10 -3.5
v 3 11 3.5
v 3 11 2.5
v 3 11 1.5
v 3 12 2.5
v 3 12 1.5
v 3 13 1.5
v 3 13 -2.5
v 3 13 -3.5
v 3 14 2.5
v 3 14 -2.5
v 4 3 0.5
v 4 3 -0.5
v 4 4 0.5
v 4 4 -0.5
v 4 7 0.5
v 4 7 -0.5
v 4 9 1.5
v 4 9 -1.5
v 4 10 -1.5
v 4 10 -2.5
v 4 13 1.5
v 4 13 -2.5
v -3 10 3.5
v -3 11 3.5
v -2 7 3.5
v -2 8 3.5
v -1 6 3.5
v -1 7 3.5
v -1 8 3.5
v -1 9 3.5
v -1 10 3.5
v -1 11 3.5
v 1 6 3.5
v 1 7 3.5
v 1 8 3.5
v 1 9 3.5
v 1 10 3.5
v 1 11 3.5
v 2 7 3.5
v 2 8 3.5
v 3 10 3.5
v 3 11 3.5
v -3 7 2.5
v -3 10 2.5
v -3 11 2.5
v -3 12 2.5
v -3 14 2.5
v -2 2 2.5
v -2 3 2.5
v -2 6 2.5
v -2 7 2.5
v -2 8 2.5
v -2 9 2.5
v -2 10 2.5
v -1 4 2.5
v -1 6 2.5
v -1 7 2.5
v -1 8 2.5
v -1 9 2.5
v -1 10 2.5
v -1 11 2.5
v -1 13 2.5
v -1 14 2.5
v -1 15 2.5
v 0 4 2.5
v 0 5 2.5
v 1 5 2.5
v 1 6 2.5
v 1 7 2.5
v 1 8 2.5
v 1 9 2.5
v 1 10 2.5
v 1 11 2.5
v 1 13 2.5
v 1 14 2.5
v 1 15 2.5
v 2 2 2.5
v 2 3 2.5
v 2 6 2.5
v 2 7 2.5
v 2 8 2.5
v 2 9 2.5
v 2 10 2.5
v 3 7 2.5
v 3 10 2.5
v 3 11 2.5
v 3 12 2.5
v 3 14 2.5
v -4 9 1.5
v -4 13 1.5
v -3 9 1.5
v -3 11 1.5
v -3 12 1.5
v -3 13 1.5
v 3 9 1.5
v 3 11 1.5
v 3 12 1.5
v 3 13 1.5
v 4 9 1.5
v 4 13 1.5
v -4 3 0.5
v -4 4 0.5
v -4 7 0.5
v -3 7 0.5
v -2 0 0.5
v -2 1 0.5
v -2 2 0.5
v -2 3 0.5
v -2 4 0.5
v -2 7 0.5
v -1 0 0.5
v -1 1 0.5
v -1 2 0.5
v 1 0 0.5
v 1 1 0.5
v 1 2 0.5
v 2 0 0.5
v 2 1 0.5
v 2 2 0.5
v 2 3 0.5
v 2 4 0.5
v 2 7 0.5
v 3 7 0.5
v 4 3 0.5
v 4 4 0.5
v 4 7 0.5
v -4 3 -0.5
v -4 4 -0.5
v -4 7 -0.5
v -3 7 -0.5
v -2 0 -0.5
v -2 1 -0.5
v -2 3 -0.5
v -2 4 -0.5
v -2 7 -0.5
v -1 0 -0.5
v -1 1 -0.5
v -1 2 -0.5
v 1 0 -0.5
v 1 1 -0.5
v 1 2 -0.5
v 2 0 -0.5
v 2 1 -0.5
v 2 3 -0.5
v 2 4 -0.5
v 2 7 -0.5
v 3 7 -0.5
v 4 3 -0.5
v 4 4 -0.5
v 4 7 -0.5
v -4 9 -1.5
v -4 10 -1.5
v -3 9 -1.5
v -3 10 -1.5
v -2 3 -1.5
v -2 7 -1.5
v 2 3 -1.5
v 2 7 -1.5
v 3 9 -1.5
v 3 10 -1.5
v 4 9 -1.5
v 4 10 -1.5
v -4 10 -2.5
v -4 13 -2.5
v -3 7 -2.5
v -3 9 -2.5
v -3 10 -2.5
v -3 13 -2.5
v -3 14 -2.5
v -1 14 -2.5
v -1 15 -2.5
v 1 14 -2.5
v 1 15 -2.5
v 3 7 -2.5
v 3 9 -2.5
v 3 10 -2.5
v 3 13 -2.5
v 3 14 -2.5
v 4 10 -2.5
v 4 13 -2.5
v -3 10 -3.5
v -3 13 -3.5
v 3 10 -3.5
v 3 13 -3.5
v -2 0 0.5
v -1 0 0.5
v 1 0 0.5
v 2 0 0.5
v -2 0 -0.5
v -1 0 -0.5
v 1 0 -0.5
v 2 0 -0.5
v -2 2 2.5
v 2 2 2.5
v -2 2 0.5
v -1 2 0.5
v 1 2 0.5
v 2 2 0.5
v -1 2 -0.5
v 1 2 -0.5
v -4 3 0.5
v -2 3 0.5
v 2 3 0.5
v 4 3 0.5
v -4 3 -0.5
v -2 3 -0.5
v 2 3 -0.5
v 4 3 -0.5
v -2 3 -1.5
v 2 3 -1.5
v -1 6 3.5
v 1 6 3.5
v -1 6 2.5
v 1 6 2.5
v -2 7 3.5
v -1 7 3.5
v 1 7 3.5
v 2 7 3.5
v -3 7 2.5
v -2 7 2.5
v -1 7 2.5
v 1 7 2.5
v 2 7 2.5
v 3 7 2.5
v -2 7 1.5
v 2 7 1.5
v -3 7 0.5
v -2 7 0.5
v 2 7 0.5
v 3 7 0.5
v -3 7 -0.5
v -2 7 -0.5
v 2 7 -0.5
v 3 7 -0.5
v -2 7 -1.5
v 2 7 -1.5
v -3 7 -2.5
v 3 7 -2.5
v -1 8 3.5
v 1 8 3.5
v -1 8 2.5
v 1 8 2.5
v -4 9 1.5
v -3 9 1.5
v 3 9 1.5
v 4 9 1.5
v -4 9 -1.5
v -3 9 -1.5
v 3 9 -1.5
v 4 9 -1.5
v -3 10 3.5
v -1 10 3.5
v 1 10 3.5
v 3 10 3.5
v -3 10 2.5
v -2 10 2.5
v -1 10 2.5
v 1 10 2.5
v 2 10 2.5
v 3 10 2.5
v -4 10 -1.5
v -3 10 -1.5
v 3 10 -1.5
v 4 10 -1.5
v -4 10 -2.5
v -3 10 -2.5
v 3 10 -2.5
v 4 10 -2.5
v -3 10 -3.5
v 3 10 -3.5
v -1 7 3.5
v 1 7 3.5
v -1 7 2.5
v 1 7 2.5
v -4 7 0.5
v -3 7 0.5
v 3 7 0.5
v 4 7 0.5
v -4 7 -0.5
v -3 7 -0.5
v 3 7 -0.5
v 4 7 -0.5
v -2 8 3.5
v -1 8 3.5
v 1 8 3.5
v 2 8 3.5
v -2 8 2.5
v -1 8 2.5
v 1 8 2.5
v 2 8 2.5
v -1 9 3.5
v 1 9 3.5
v -1 9 2.5
v 1 9 2.5
v -3 11 3.5
v -1 11 3.5
v 1 11 3.5
v 3 11 3.5
v -3 11 2.5
v -1 11 2.5
v 1 11 2.5
v 3 11 2.5
v -4 13 1.5
v -3 13 1.5
v 3 13 1.5
v 4 13 1.5
v -4 13 -2.5
v -3 13 -2.5
v 3 13 -2.5
v 4 13 -2.5
v -3 13 -3.5
v 3 13 -3.5
v -3 14 2.5
v -1 14 2.5
v 1 14 2.5
v 3 14 2.5
v -3 14 -2.5
v -1 14 -2.5
v 1 14 -2.5
v 3 14 -2.5
v -1 15 2.5
v 1 15 2.5
v -1 15 -2.5
v 1 15 -2.5

# faces
f 3/2/1 2/2/1 1/2/1
f 4/2/1 2/2/1 3/2/1
f 5/13/1 4/13/1 3/13/1
f 6/13/1 4/13/1 5/13/1
f 9/16/1 8/16/1 7/16/1
f 11/16/1 9/16/1 7/16/1
f 11/16/1 10/16/1 9/16/1
f 12/16/1 10/16/1 11/16/1
f 17/2/1 14/2/1 13/2/1
f 17/2/1 16/2/1 15/2/1
f 17/2/1 15/2/1 14/2/1
f 18/2/1 16/2/1 17/2/1
f 19/2/1 16/2/1 18/2/1
f 21/2/1 17/2/1 13/2/1
f 22/5/1 19/5/1 18/5/1
f 23/5/1 19/5/1 22/5/1
f 25/6/1 21/6/1 20/6/1
f 26/2/1 17/2/1 21/2/1
f 26/6/1 21/6/1 25/6/1
f 27/2/1 17/2/1 26/2/1
f 28/5/1 27/5/1 26/5/1
f 29/5/1 27/5/1 28/5/1
f 30/16/1 29/16/1 28/16/1
f 31/16/1 24/16/1 23/16/1
f 32/16/1 24/16/1 31/16/1
f 33/16/1 30/16/1 28/16/1
f 33/16/1 31/16/1 30/16/1
f 34/16/1 31/16/1 33/16/1
f 37/16/1 36/16/1 35/16/1
f 38/16/1 36/16/1 37/16/1
f 40/11/1 38/11/1 37/11/1
f 41/11/1 40/11/1 39/11/1
f 42/11/1 38/11/1 40/11/1
f 42/11/1 40/11/1 41/11/1
f 43/11/1 38/11/1 42/11/1
f 45/13/1 42/13/1 41/13/1
f 46/13/1 44/13/1 43/13/1
f 47/13/1 45/13/1 41/13/1
f 48/13/1 45/13/1 47/13/1
f 50/3/1 48/3/1 47/3/1
f 51/13/1 45/13/1 48/13/1
f 51/3/1 48/3/1 50/3/1
f 52/13/1 45/13/1 51/13/1
f 53/13/1 44/13/1 46/13/1
f 54/13/1 44/13/1 53/13/1
f 55/6/1 50/6/1 49/6/1
f 56/6/1 50/6/1 55/6/1
f 59/6/1 58/6/1 57/6/1
f 60/6/1 58/6/1 59/6/1
f 63/6/1 62/6/1 61/6/1
f 64/6/1 62/6/1 63/6/1
f 67/16/1 66/16/1 65/16/1
f 68/16/1 66/16/1 67/16/1
f 71/16/1 70/16/1 69/16/1
f 72/16/1 70/16/1 71/16/1
f 73/11/1 72/11/1 71/11/1
f 74/11/1 72/11/1 73/11/1
f 77/6/1 76/6/1 75/6/1
f 78/6/1 76/6/1 77/6/1
f 81/6/1 80/6/1 79/6/1
f 82/6/1 80/6/1 81/6/1
f 83/16/2 84/16/2 85/16/2
f 85/16/2 84/16/2 86/16/2
f 85/11/2 86/11/2 87/11/2
f 87/11/2 86/11/2 88/11/2
f 89/6/2 90/6/2 91/6/2
f 91/6/2 90/6/2 92/6/2
f 93/6/2 94/6/2 95/6/2
f 95/6/2 94/6/2 96/6/2
f 97/6/2 98/6/2 99/6/2
f 99/6/2 98/6/2 100/6/2
f 101/6/2 102/6/2 103/6/2
f 103/6/2 102/6/2 104/6/2
f 105/16/2 106/16/2 107/16/2
f 107/16/2 106/16/2 108/16/2
f 109/16/2 110/16/2 111/16/2
f 111/16/2 110/16/2 112/16/2
f 111/11/2 112/11/2 114/11/2
f 113/11/2 114/11/2 115/11/2
f 114/11/2 112/11/2 116/11/2
f 115/11/2 114/11/2 116/11/2
f 116/11/2 112/11/2 117/11/2
f 115/13/2 116/13/2 119/13/2
f 117/13/2 118/13/2 120/13/2
f 115/13/2 119/13/2 121/13/2
f 121/13/2 119/13/2 122/13/2
f 121/3/2 122/3/2 124/3/2
f 122/13/2 119/13/2 125/13/2
f 124/3/2 122/3/2 125/3/2
f 125/13/2 119/13/2 126/13/2
f 120/13/2 118/13/2 127/13/2
f 127/13/2 118/13/2 128/13/2
f 123/6/2 124/6/2 129/6/2
f 129/6/2 124/6/2 130/6/2
f 131/2/2 132/2/2 135/2/2
f 133/2/2 134/2/2 135/2/2
f 132/2/2 133/2/2 135/2/2
f 135/2/2 134/2/2 136/2/2
f 136/2/2 134/2/2 137/2/2
f 131/2/2 135/2/2 139/2/2
f 136/5/2 137/5/2 140/5/2
f 140/5/2 137/5/2 141/5/2
f 138/6/2 139/6/2 143/6/2
f 139/2/2 135/2/2 144/2/2
f 143/6/2 139/6/2 144/6/2
f 144/2/2 135/2/2 145/2/2
f 144/5/2 145/5/2 146/5/2
f 146/5/2 145/5/2 147/5/2
f 146/16/2 147/16/2 148/16/2
f 141/16/2 142/16/2 149/16/2
f 149/16/2 142/16/2 150/16/2
f 146/16/2 148/16/2 151/16/2
f 148/16/2 149/16/2 151/16/2
f 151/16/2 149/16/2 152/16/2
f 153/2/2 154/2/2 155/2/2
f 155/2/2 154/2/2 156/2/2
f 155/13/2 156/13/2 157/13/2
f 157/13/2 156/13/2 158/13/2
f 159/16/2 160/16/2 161/16/2
f 159/16/2 161/16/2 163/16/2
f 161/16/2 162/16/2 163/16/2
f 163/16/2 162/16/2 164/16/2
f 170/6/3 168/6/3 167/6/3
f 171/6/3 168/6/3 170/6/3
f 173/6/3 166/6/3 165/6/3
f 174/6/3 166/6/3 173/6/3
f 175/6/3 170/6/3 169/6/3
f 176/6/3 170/6/3 175/6/3
f 177/6/3 172/6/3 171/6/3
f 178/6/3 172/6/3 177/6/3
f 181/6/3 177/6/3 176/6/3
f 182/6/3 177/6/3 181/6/3
f 183/6/3 180/6/3 179/6/3
f 184/6/3 180/6/3 183/6/3
f 193/2/3 186/2/3 185/2/3
f 194/2/3 186/2/3 193/2/3
f 195/2/3 186/2/3 194/2/3
f 196/2/3 186/2/3 195/2/3
f 197/13/3 192/13/3 191/13/3
f 198/3/3 193/3/3 192/3/3
f 198/13/3 192/13/3 197/13/3
f 199/3/3 193/3/3 198/3/3
f 200/2/3 195/2/3 194/2/3
f 201/16/3 196/16/3 195/16/3
f 201/2/3 195/2/3 200/2/3
f 202/16/3 196/16/3 201/16/3
f 203/5/3 188/5/3 187/5/3
f 204/16/3 189/16/3 188/16/3
f 205/16/3 189/16/3 204/16/3
f 207/13/3 197/13/3 191/13/3
f 207/16/3 198/16/3 197/16/3
f 208/16/3 198/16/3 207/16/3
f 209/13/3 208/13/3 207/13/3
f 209/16/3 198/16/3 208/16/3
f 210/16/3 198/16/3 209/16/3
f 211/16/3 200/16/3 199/16/3
f 212/16/3 200/16/3 211/16/3
f 213/2/3 202/2/3 201/2/3
f 213/2/3 203/2/3 202/2/3
f 214/2/3 203/2/3 213/2/3
f 215/5/3 188/5/3 203/5/3
f 215/2/3 203/2/3 214/2/3
f 216/12/3 205/12/3 204/12/3
f 216/16/3 204/16/3 188/16/3
f 217/16/3 206/16/3 205/16/3
f 217/12/3 205/12/3 216/12/3
f 218/16/3 206/16/3 217/16/3
f 219/11/3 191/11/3 190/11/3
f 220/13/3 210/13/3 209/13/3
f 220/11/3 191/11/3 219/11/3
f 220/13/3 207/13/3 191/13/3
f 220/13/3 209/13/3 207/13/3
f 221/3/3 211/3/3 210/3/3
f 221/13/3 210/13/3 220/13/3
f 222/3/3 211/3/3 221/3/3
f 223/2/3 213/2/3 212/2/3
f 224/16/3 214/16/3 213/16/3
f 224/2/3 213/2/3 223/2/3
f 225/16/3 214/16/3 224/16/3
f 226/2/3 225/2/3 224/2/3
f 226/2/3 224/2/3 223/2/3
f 226/2/3 223/2/3 222/2/3
f 227/2/3 225/2/3 226/2/3
f 228/5/3 188/5/3 215/5/3
f 229/16/3 216/16/3 188/16/3
f 229/5/3 188/5/3 228/5/3
f 229/16/3 217/16/3 216/16/3
f 230/16/3 217/16/3 229/16/3
f 233/16/3 232/16/3 231/16/3
f 234/16/3 232/16/3 233/16/3
f 235/16/3 232/16/3 234/16/3
f 236/16/3 232/16/3 235/16/3
f 241/16/3 238/16/3 237/16/3
f 241/16/3 240/16/3 239/16/3
f 241/16/3 239/16/3 238/16/3
f 242/16/3 240/16/3 241/16/3
f 246/13/3 245/13/3 244/13/3
f 250/2/3 244/2/3 243/2/3
f 251/13/3 246/13/3 244/13/3
f 251/2/3 244/2/3 250/2/3
f 252/13/3 246/13/3 251/13/3
f 253/16/3 248/16/3 247/16/3
f 254/11/3 249/11/3 248/11/3
f 254/16/3 248/16/3 253/16/3
f 255/11/3 249/11/3 254/11/3
f 259/16/3 257/16/3 256/16/3
f 260/11/3 258/11/3 257/11/3
f 260/16/3 257/16/3 259/16/3
f 261/11/3 258/11/3 260/11/3
f 265/13/3 264/13/3 263/13/3
f 266/2/3 263/2/3 262/2/3
f 267/13/3 265/13/3 263/13/3
f 267/2/3 263/2/3 266/2/3
f 268/13/3 265/13/3 267/13/3
f 270/13/4 271/13/4 272/13/4
f 269/2/4 270/2/4 275/2/4
f 270/13/4 272/13/4 276/13/4
f 275/2/4 270/2/4 276/2/4
f 276/13/4 272/13/4 277/13/4
f 273/16/4 274/16/4 278/16/4
f 274/11/4 275/11/4 279/11/4
f 278/16/4 274/16/4 279/16/4
f 279/11/4 275/11/4 280/11/4
f 280/11/4 275/11/4 283/11/4
f 281/16/4 282/16/4 284/16/4
f 282/11/4 283/11/4 285/11/4
f 284/16/4 282/16/4 285/16/4
f 283/11/4 275/11/4 286/11/4
f 285/11/4 283/11/4 286/11/4
f 287/13/4 288/13/4 289/13/4
f 286/2/4 287/2/4 290/2/4
f 287/13/4 289/13/4 291/13/4
f 290/2/4 287/2/4 291/2/4
f 291/13/4 289/13/4 292/13/4
f 293/16/4 294/16/4 295/16/4
f 295/16/4 294/16/4 296/16/4
f 297/13/4 298/13/4 299/13/4
f 299/13/4 298/13/4 300/13/4
f 301/16/4 302/16/4 303/16/4
f 303/16/4 302/16/4 304/16/4
f 305/16/4 306/16/4 309/16/4
f 309/16/4 306/16/4 310/16/4
f 310/16/4 311/16/4 312/16/4
f 310/16/4 312/16/4 314/16/4
f 312/16/4 313/16/4 314/16/4
f 314/16/4 313/16/4 315/16/4
f 307/2/4 308/2/4 316/2/4
f 308/5/4 309/5/4 317/5/4
f 316/2/4 308/2/4 317/2/4
f 317/5/4 309/5/4 318/5/4
f 310/16/4 314/16/4 319/16/4
f 319/16/4 314/16/4 320/16/4
f 318/16/4 319/16/4 321/16/4
f 321/16/4 319/16/4 322/16/4
f 323/16/4 324/16/4 325/16/4
f 325/16/4 324/16/4 326/16/4
f 331/16/5 328/16/5 327/16/5
f 332/16/5 328/16/5 331/16/5
f 333/16/5 330/16/5 329/16/5
f 334/16/5 330/16/5 333/16/5
f 337/11/5 336/11/5 335/11/5
f 338/11/5 336/11/5 337/11/5
f 339/11/5 336/11/5 338/11/5
f 340/11/5 336/11/5 339/11/5
f 341/11/5 339/11/5 338/11/5
f 342/11/5 339/11/5 341/11/5
f 347/2/5 344/2/5 343/2/5
f 348/2/5 344/2/5 347/2/5
f 349/2/5 346/2/5 345/2/5
f 350/2/5 346/2/5 349/2/5
f 351/13/5 349/13/5 348/13/5
f 352/13/5 349/13/5 351/13/5
f 355/6/5 354/6/5 353/6/5
f 356/6/5 354/6/5 355/6/5
f 362/6/5 358/6/5 357/6/5
f 363/6/5 358/6/5 362/6/5
f 364/6/5 360/6/5 359/6/5
f 365/6/5 360/6/5 364/6/5
f 367/2/5 362/2/5 361/2/5
f 368/2/5 366/2/5 365/2/5
f 369/2/5 367/2/5 361/2/5
f 370/2/5 367/2/5 369/2/5
f 371/2/5 366/2/5 368/2/5
f 372/2/5 366/2/5 371/2/5
f 377/2/5 374/2/5 373/2/5
f 378/2/5 376/2/5 375/2/5
f 379/2/5 377/2/5 373/2/5
f 379/2/5 378/2/5 377/2/5
f 380/2/5 376/2/5 378/2/5
f 380/2/5 378/2/5 379/2/5
f 383/6/5 382/6/5 381/6/5
f 384/6/5 382/6/5 383/6/5
f 389/16/5 386/16/5 385/16/5
f 390/16/5 386/16/5 389/16/5
f 391/16/5 388/16/5 387/16/5
f 392/16/5 388/16/5 391/16/5
f 397/6/5 394/6/5 393/6/5
f 398/6/5 394/6/5 397/6/5
f 399/6/5 394/6/5 398/6/5
f 400/6/5 396/6/5 395/6/5
f 401/6/5 396/6/5 400/6/5
f 402/6/5 396/6/5 401/6/5
f 407/16/5 404/16/5 403/16/5
f 408/16/5 404/16/5 407/16/5
f 409/16/5 406/16/5 405/16/5
f 410/16/5 406/16/5 409/16/5
f 411/16/5 409/16/5 408/16/5
f 412/16/5 409/16/5 411/16/5
f 413/6/6 414/6/6 415/6/6
f 415/6/6 414/6/6 416/6/6
f 417/13/6 418/13/6 421/13/6
f 421/13/6 418/13/6 422/13/6
f 419/13/6 420/13/6 423/13/6
f 423/13/6 420/13/6 424/13/6
f 425/6/6 426/6/6 429/6/6
f 429/6/6 426/6/6 430/6/6
f 427/6/6 428/6/6 431/6/6
f 431/6/6 428/6/6 432/6/6
f 433/6/6 434/6/6 435/6/6
f 435/6/6 434/6/6 436/6/6
f 437/6/6 438/6/6 441/6/6
f 441/6/6 438/6/6 442/6/6
f 439/6/6 440/6/6 443/6/6
f 443/6/6 440/6/6 444/6/6
f 445/16/6 446/16/6 449/16/6
f 449/16/6 446/16/6 450/16/6
f 447/16/6 448/16/6 451/16/6
f 451/16/6 448/16/6 452/16/6
f 450/16/6 451/16/6 453/16/6
f 453/16/6 451/16/6 454/16/6
f 455/16/6 456/16/6 459/16/6
f 459/16/6 456/16/6 460/16/6
f 457/16/6 458/16/6 461/16/6
f 461/16/6 458/16/6 462/16/6
f 463/16/6 464/16/6 465/16/6
f 465/16/6 464/16/6 466/16/6
